{
	"asset":{
		"generator":"Khronos glTF Blender I/O v3.5.30",
		"version":"2.0"
	},
	"scene":0,
	"scenes":[
		{
			"name":"Scene",
			"nodes":[
				0
			]
		}
	],
	"nodes":[
		{
			"mesh":0,
			"name":"Cube",
			"translation":[
				61.696861267089844,
				-6.069619655609131,
				-11.67636489868164
			]
		}
	],
	"materials":[
		{
			"doubleSided":true,
			"name":"Material",
			"pbrMetallicRoughness":{
				"baseColorTexture":{
					"index":0
				},
				"metallicFactor":0,
				"roughnessFactor":0.5
			}
		}
	],
	"meshes":[
		{
			"name":"Cube",
			"primitives":[
				{
					"attributes":{
						"COLOR_0":0,
						"POSITION":1,
						"TEXCOORD_0":2,
						"NORMAL":3
					},
					"indices":4,
					"material":0
				}
			]
		}
	],
	"textures":[
		{
			"sampler":0,
			"source":0
		}
	],
	"images":[
		{
			"mimeType":"image/png",
			"name":"satelite mapa",
			"uri":"satelite%20mapa.png"
		}
	],
	"accessors":[
		{
			"bufferView":0,
			"componentType":5123,
			"count":283047,
			"normalized":true,
			"type":"VEC4"
		},
		{
			"bufferView":1,
			"componentType":5126,
			"count":283047,
			"max":[
				56.46202087402344,
				38.424583435058594,
				99.70458221435547
			],
			"min":[
				-181.4137725830078,
				-1,
				-71.5897445678711
			],
			"type":"VEC3"
		},
		{
			"bufferView":2,
			"componentType":5126,
			"count":283047,
			"type":"VEC2"
		},
		{
			"bufferView":3,
			"componentType":5126,
			"count":283047,
			"type":"VEC3"
		},
		{
			"bufferView":4,
			"componentType":5125,
			"count":454452,
			"type":"SCALAR"
		}
	],
	"bufferViews":[
		{
			"buffer":0,
			"byteLength":2264376,
			"byteOffset":0,
			"target":34962
		},
		{
			"buffer":0,
			"byteLength":3396564,
			"byteOffset":2264376,
			"target":34962
		},
		{
			"buffer":0,
			"byteLength":2264376,
			"byteOffset":5660940,
			"target":34962
		},
		{
			"buffer":0,
			"byteLength":3396564,
			"byteOffset":7925316,
			"target":34962
		},
		{
			"buffer":0,
			"byteLength":1817808,
			"byteOffset":11321880,
			"target":34963
		}
	],
	"samplers":[
		{
			"magFilter":9729,
			"minFilter":9987,
			"wrapS":33648,
			"wrapT":33648
		}
	],
	"buffers":[
		{
			"byteLength":13139688,
			"uri":"Mapa.bin"
		}
	]
}
