<?xml version="1.0" standalone="no"?>
<!DOCTYPE svg PUBLIC "-//W3C//DTD SVG 20010904//EN"
 "http://www.w3.org/TR/2001/REC-SVG-20010904/DTD/svg10.dtd">
<svg version="1.0" xmlns="http://www.w3.org/2000/svg"
 width="512.000000pt" height="512.000000pt" viewBox="0 0 512.000000 512.000000"
 preserveAspectRatio="xMidYMid meet">

<g transform="translate(0.000000,512.000000) scale(0.100000,-0.100000)"
fill="#000000" stroke="none">
<path d="M3240 5102 c-99 -50 -108 -197 -15 -258 18 -12 61 -20 133 -26 359
-29 626 -146 868 -380 253 -246 393 -550 411 -893 7 -139 17 -172 68 -211 29
-22 48 -28 86 -28 55 0 90 20 128 75 22 33 23 39 18 164 -10 239 -63 441 -172
660 -85 170 -175 294 -310 430 -136 136 -260 225 -430 310 -183 91 -319 133
-525 160 -143 20 -217 19 -260 -3z"/>
<path d="M3234 4500 c-47 -23 -84 -81 -84 -130 0 -71 56 -137 122 -145 227
-29 298 -49 413 -120 83 -52 197 -167 248 -251 54 -91 96 -225 103 -336 8
-114 28 -160 84 -188 79 -40 162 -13 200 66 21 41 22 56 16 138 -35 506 -407
904 -911 976 -104 14 -145 12 -191 -10z"/>
<path d="M1892 4472 c-29 -11 -70 -33 -90 -49 -85 -68 -82 -59 -287 -857
l-190 -739 -437 -431 c-469 -462 -478 -473 -463 -552 4 -26 23 -55 63 -96 l56
-59 -172 -172 c-94 -95 -176 -185 -182 -200 -14 -40 -12 -83 6 -120 9 -18 190
-206 403 -420 421 -423 417 -420 503 -396 36 9 72 40 216 182 l172 171 53 -51
c61 -59 85 -73 126 -73 51 0 84 19 157 91 l71 70 364 -369 c200 -203 378 -377
396 -386 42 -21 85 -20 131 3 20 11 144 127 274 258 207 209 237 243 244 278
14 77 3 91 -388 489 l-367 373 43 42 c49 48 -38 24 1006 281 272 66 514 130
537 141 58 28 128 108 148 170 24 72 18 180 -15 242 -18 34 -329 355 -1060
1094 -1134 1146 -1073 1091 -1204 1100 -43 2 -77 -2 -114 -15z m1104 -1296
c550 -555 999 -1014 999 -1020 0 -9 -281 -81 -1108 -282 l-278 -68 -170 169
c-94 94 -315 317 -491 498 l-320 327 178 695 c99 382 182 694 185 692 4 -1
456 -456 1005 -1011z m-704 -1479 l51 -59 -334 -334 -335 -335 -444 451 -444
451 335 335 334 334 393 -392 c216 -216 416 -419 444 -451z m-1124 -854 l-108
-108 -46 45 c-25 25 -141 143 -257 263 l-210 218 104 105 104 104 260 -260
260 -260 -107 -107z m1480 46 l303 -306 -111 -106 c-61 -59 -115 -107 -118
-107 -4 0 -144 137 -311 304 l-304 304 114 111 c63 60 116 109 119 108 3 -1
141 -140 308 -308z"/>
</g>
</svg>
